<svg width="25" height="25" xmlns="http://www.w3.org/2000/svg"><path d="M25.016 12.508c0 6.908-5.6 12.508-12.508 12.508C5.6 25.016 0 19.416 0 12.508 0 5.6 5.6 0 12.508 0c6.908 0 12.508 5.6 12.508 12.508zm-4.639 1.344a8.055 8.055 0 000-2.796l-1.842-.499a6.107 6.107 0 00-.425-1.024l.948-1.657a8.01 8.01 0 00-1.98-1.98l-1.656.951v-.002a6.422 6.422 0 00-1.025-.426l-.499-1.841a8 8 0 00-2.795 0l-.502 1.841a6.136 6.136 0 00-1.023.426l-1.657-.949a8.027 8.027 0 00-1.98 1.98l.95 1.657H6.89a6.32 6.32 0 00-.426 1.024l-1.84.499a7.911 7.911 0 000 2.796l1.84.501c.11.353.254.696.426 1.024l-.949 1.657a8.023 8.023 0 001.98 1.979l1.657-.949c.328.173.671.314 1.023.426l.502 1.841h-.002a7.964 7.964 0 002.797 0l.499-1.841c.354-.11.697-.253 1.025-.426l1.656.949a8.006 8.006 0 001.98-1.979l-.95-1.657h.002c.171-.328.313-.672.425-1.024zM12.5 15.43a2.966 2.966 0 01-2.104-.872 2.963 2.963 0 01-.872-2.104c0-.788.312-1.546.872-2.104a2.971 2.971 0 014.209 0 2.978 2.978 0 010 4.208 2.97 2.97 0 01-2.105.872z" fill="#7db578"/></svg>