<svg width="25" height="25" xmlns="http://www.w3.org/2000/svg"><path d="M25.016 12.508c0 6.908-5.6 12.508-12.508 12.508C5.6 25.016 0 19.416 0 12.508 0 5.6 5.6 0 12.508 0c6.908 0 12.508 5.6 12.508 12.508zm-8.566 1.258l1.971-1.972a3.69 3.69 0 000-5.215 3.69 3.69 0 00-5.215 0l-2.845 2.845a3.69 3.69 0 00.691 5.757l1.522-1.524a1.656 1.656 0 01-.791-.441 1.678 1.678 0 010-2.371L14.628 8a1.678 1.678 0 012.371 0 1.678 1.678 0 010 2.371l-.836.836c.345.811.44 1.703.287 2.558zm-7.9-2.532l-1.971 1.971a3.69 3.69 0 000 5.216 3.691 3.691 0 005.215 0l2.845-2.845a3.69 3.69 0 00-.69-5.757l-1.523 1.523c.29.07.565.216.791.442a1.678 1.678 0 010 2.371L10.373 17a1.678 1.678 0 01-2.371 0 1.678 1.678 0 010-2.371l.836-.836a4.507 4.507 0 01-.288-2.559z" fill="#7db578"/></svg>