<svg width="25" height="25" xmlns="http://www.w3.org/2000/svg"><path d="M25.016 12.508c0 6.908-5.6 12.508-12.508 12.508C5.6 25.016 0 19.416 0 12.508 0 5.6 5.6 0 12.508 0c6.908 0 12.508 5.6 12.508 12.508zm-5.537-5.964l-.849.683a8.148 8.148 0 00-5.982-2.825 8.135 8.135 0 00-8.105 6.221c-.222.867.443 1.735 1.348 1.754a1.443 1.443 0 001.421-1.089c.554-2.363 2.732-4.098 5.261-4.043a5.26 5.26 0 013.822 1.754l-.85.683c-.148.111-.166.332-.055.48.055.074.13.11.203.129l4.025.887c.148.018.296-.093.296-.241l.018-4.117c0-.073-.018-.166-.073-.221a.35.35 0 00-.48-.055zM5.522 18.876l.85-.683a8.144 8.144 0 005.981 2.825 8.128 8.128 0 008.104-6.24c.222-.867-.443-1.735-1.348-1.753a1.44 1.44 0 00-1.421 1.088c-.554 2.363-2.733 4.099-5.262 4.043a5.26 5.26 0 01-3.821-1.754l.851-.664c.148-.111.167-.332.056-.48a.351.351 0 00-.204-.129l-4.024-.887c-.148-.018-.296.093-.296.241L4.969 18.6c0 .073.018.166.074.221a.348.348 0 00.479.055z" fill="#31a6ff"/></svg>