<svg width="25" height="25" xmlns="http://www.w3.org/2000/svg"><path d="M25.016 12.508c0 6.908-5.6 12.508-12.508 12.508C5.6 25.016 0 19.416 0 12.508 0 5.6 5.6 0 12.508 0c6.908 0 12.508 5.6 12.508 12.508zm-14.067 1.543V20h3.101v-5.949H20V10.95h-5.95V5h-3.101v5.95H5v3.101z" fill="#f39e24"/><path d="M13.59-14.808l4.836 4.836 4.836-4.836 3.125 3.125-4.836 4.836 4.836 4.836-3.124 3.125-4.836-4.836-4.837 4.836-3.125-3.125L15.3-6.848l-4.836-4.836zm3.126 7.96L11.879-2.01 13.59-.3l4.837-4.837L23.263-.3l1.71-1.71-4.836-4.836 4.836-4.836-1.711-1.711-4.836 4.836-4.836-4.836-1.71 1.71z" fill="none"/></svg>